<svg id="Layer_1" data-name="Layer 1" xmlns="http://www.w3.org/2000/svg" viewBox="0 0 400 200"><defs><style>.cls-1,.cls-2{fill:#fff;}.cls-2{font-size:44px;font-family:JosefinSans-SemiBold, Josefin Sans SemiBold;font-weight:600;}.cls-3{letter-spacing:-0.01em;}.cls-4{letter-spacing:-0.01em;}.cls-5{letter-spacing:-0.01em;}</style></defs><title>Artboard 6</title><path class="cls-1" d="M80.5,39.78c1.36.23,2.71.48,4,.79C83.22,40.26,81.87,40,80.5,39.78Zm32.64,1.31c1-.26,2-.5,3-.71C115.11,40.59,114.12,40.82,113.14,41.09Zm-4.4,1.36c1-.34,1.94-.65,2.91-.94C110.68,41.79,109.7,42.11,108.74,42.45ZM80.5,39.78c1.36.23,2.71.48,4,.79C83.22,40.26,81.87,40,80.5,39.78Z"/><path class="cls-1" d="M78.85,160.05A58.89,58.89,0,0,0,94.15,156,60.82,60.82,0,0,1,78.85,160.05Zm35.51-1.23c1.11.29,2.23.53,3.34.72C116.59,159.33,115.47,159.09,114.36,158.82Zm-3.3-.9q1.64.51,3.3.9Q112.7,158.42,111.06,157.92Zm0,0q1.64.51,3.3.9Q112.7,158.42,111.06,157.92Zm3.3.9c1.11.29,2.23.53,3.34.72C116.59,159.33,115.47,159.09,114.36,158.82Z"/><path class="cls-1" d="M157.23,91a57.34,57.34,0,0,0,2.17-7.76A65.17,65.17,0,0,1,157.23,91Zm.38,18.77a62.82,62.82,0,0,1,1.79,6.66A59.5,59.5,0,0,0,157.61,109.74ZM157.23,91a57.34,57.34,0,0,0,2.17-7.76A65.17,65.17,0,0,1,157.23,91Z"/><path class="cls-1" d="M125.69,73.52a1.87,1.87,0,0,1,.15.32h0A2.39,2.39,0,0,0,125.69,73.52Zm-23.19-19-.19-.13,1.15.82C103.15,55,102.82,54.74,102.5,54.52Zm15.34,16.2a55.44,55.44,0,0,0-11.35-13.13,56.37,56.37,0,0,1,11.33,13.12h0Zm-5.38-23.66a57.32,57.32,0,0,1,7.35-1.74A51.32,51.32,0,0,0,112.46,47.06Zm-10,7.46-.19-.13,1.15.82C103.15,55,102.82,54.74,102.5,54.52Zm10-7.46a57.32,57.32,0,0,1,7.35-1.74A51.32,51.32,0,0,0,112.46,47.06Zm34.15,52.29c.1.15.19.31.27.46a0,0,0,0,0,0,0h0C146.8,99.64,146.71,99.49,146.61,99.35ZM117.84,70.72a55.44,55.44,0,0,0-11.35-13.13,56.37,56.37,0,0,1,11.33,13.12h0Zm7.85,2.8a1.87,1.87,0,0,1,.15.32h0A2.39,2.39,0,0,0,125.69,73.52Zm25.41,18c.39-.93.74-1.87,1.06-2.83C151.82,89.62,151.47,90.56,151.1,91.49Zm1.06-2.83a52.33,52.33,0,0,0,2-7.66A56.41,56.41,0,0,1,152.16,88.66Zm-39.7-41.6a57.32,57.32,0,0,1,7.35-1.74A51.32,51.32,0,0,0,112.46,47.06Z"/><path class="cls-1" d="M152.51,112a57.23,57.23,0,0,1,1.66,6.59A50,50,0,0,0,152.51,112Zm-2.62-6.67c.42.91.83,1.84,1.21,2.77C150.73,107.18,150.32,106.26,149.89,105.35Zm-15.36,15.39a60.18,60.18,0,0,0,13.27-12.56A62.52,62.52,0,0,1,134.53,120.74Zm-15.32,15.89.19-.23a4.84,4.84,0,0,0,.33-.46ZM110,151.7l-.23-.08-.1,0c-.65-.24-1.3-.49-2-.76a52.32,52.32,0,0,0,8.47,2.75,53.42,53.42,0,0,0,8.12,1.27A55,55,0,0,1,110,151.7Zm-10.13-4.9h0l.32-.21ZM152.51,112a57.23,57.23,0,0,1,1.66,6.59A50,50,0,0,0,152.51,112Zm-2.62-6.67c.42.91.83,1.84,1.21,2.77C150.73,107.18,150.32,106.26,149.89,105.35Zm-15.36,15.39a60.18,60.18,0,0,0,13.27-12.56A62.52,62.52,0,0,1,134.53,120.74Zm0,0a60.18,60.18,0,0,0,13.27-12.56A62.52,62.52,0,0,1,134.53,120.74Z"/><path class="cls-1" d="M142.34,106.11c.65-.76,1.26-1.54,1.84-2.33C143.59,104.57,143,105.35,142.34,106.11Zm-12.43,11a54.33,54.33,0,0,0,12.43-11A56.62,56.62,0,0,1,129.91,117.15Zm-7.48-37.23-.06-.14c.08.22.17.44.25.67ZM129,117.76s0,0,0,0c.14-.45.28-.91.4-1.36C129.24,116.84,129.1,117.31,129,117.76Zm0-35.9a0,0,0,0,0,0,0c.14.46.28.91.41,1.37C129.25,82.76,129.11,82.31,129,81.86Z"/><path class="cls-1" d="M39.64,120.84a60.82,60.82,0,0,1,4.09-15.3A58.89,58.89,0,0,0,39.64,120.84Zm0,0a60.82,60.82,0,0,1,4.09-15.3A58.89,58.89,0,0,0,39.64,120.84Z"/><path class="cls-1" d="M80.39,136.41l-.14-.19a17.62,17.62,0,0,0,1.23,1.57C81.11,137.34,80.76,136.88,80.39,136.41Zm1.84,2.31-.75-.92c.46.61,1,1.22,1.5,1.81Zm6,6.23c-.55-.49-1.07-1-1.6-1.51-.28-.26-.56-.53-.82-.81s-.55-.55-.83-.83-.43-.46-.64-.7-.38-.4-.57-.62-.53-.58-.79-.87a56.1,56.1,0,0,0,5.79,5.85Zm0,0c-.55-.49-1.07-1-1.6-1.51-.28-.27-.56-.53-.82-.81s-.55-.55-.83-.83-.43-.46-.64-.7-.38-.4-.57-.62-.53-.58-.79-.87a56.1,56.1,0,0,0,5.79,5.85c.31.26.61.52.91.76C89.19,145.8,88.7,145.38,88.23,145Zm-6-6.23-.75-.92c.46.61,1,1.22,1.5,1.81Zm-2.63-3.38c.08.12.16.24.25.35a6.14,6.14,0,0,0,.4.53C80,135.93,79.81,135.64,79.6,135.34Zm.79,1.07-.14-.19a17.62,17.62,0,0,0,1.23,1.57C81.11,137.34,80.76,136.88,80.39,136.41ZM88.23,145c-.55-.49-1.07-1-1.6-1.51-.28-.26-.56-.53-.82-.81s-.55-.55-.83-.83-.43-.46-.64-.7-.38-.4-.57-.62-.53-.58-.79-.87a56.1,56.1,0,0,0,5.79,5.85c.31.26.61.52.91.76C89.19,145.8,88.7,145.38,88.23,145Zm-6-6.23-.75-.92c.46.61,1,1.22,1.5,1.81Zm-1.84-2.31-.14-.19a17.62,17.62,0,0,0,1.23,1.57C81.11,137.34,80.76,136.88,80.39,136.41Zm-.79-1.07c.08.12.16.24.25.35a6.14,6.14,0,0,0,.4.53C80,135.93,79.81,135.64,79.6,135.34Zm-2.28,19.31a53.86,53.86,0,0,0,10.94-2.41A56.52,56.52,0,0,1,77.32,154.65Zm12.7-3c1.08-.39,2.15-.82,3.2-1.31C92.17,150.79,91.1,151.21,90,151.62Zm9.86-4.82h0ZM88.23,145c-.55-.49-1.07-1-1.6-1.51-.28-.27-.56-.53-.82-.81s-.55-.55-.83-.83-.43-.46-.64-.7-.38-.4-.57-.62c-.53-.58-1-1.16-1.54-1.76l-.75-.92c.46.61,1,1.22,1.5,1.81a56.1,56.1,0,0,0,5.79,5.85c.31.26.61.52.91.76C89.19,145.8,88.7,145.38,88.23,145Zm-7.84-8.54-.14-.19a17.62,17.62,0,0,0,1.23,1.57C81.11,137.34,80.76,136.88,80.39,136.41Zm-.79-1.07c.08.12.16.24.25.35a6.14,6.14,0,0,0,.4.53C80,135.93,79.81,135.64,79.6,135.34Zm-5.68-9.59h0s0,.08.07.13Zm-3.65-8.33c.17.12.36.23.53.34h0Zm-24.15-1.3c-.39,1.65-.7,3.32-.93,5a60.27,60.27,0,0,1,1.29-6.42C46.35,115.18,46.23,115.65,46.12,116.12ZM79.6,135.34c.08.12.16.24.25.35a6.14,6.14,0,0,0,.4.53C80,135.93,79.81,135.64,79.6,135.34Zm.79,1.07-.14-.19a17.62,17.62,0,0,0,1.23,1.57C81.11,137.34,80.76,136.88,80.39,136.41Zm1.84,2.31-.75-.92c.46.61,1,1.22,1.5,1.81Zm6,6.23c-.55-.49-1.07-1-1.6-1.51-.28-.26-.56-.53-.82-.81s-.55-.55-.83-.83-.43-.46-.64-.7-.38-.4-.57-.62-.53-.58-.79-.87a56.1,56.1,0,0,0,5.79,5.85c.31.26.61.52.91.76C89.19,145.8,88.7,145.38,88.23,145Zm-8.63-9.61c.08.12.16.24.25.35a6.14,6.14,0,0,0,.4.53C80,135.93,79.81,135.64,79.6,135.34Zm.79,1.07-.14-.19a17.62,17.62,0,0,0,1.23,1.57C81.11,137.34,80.76,136.88,80.39,136.41Zm1.84,2.31-.75-.92c.46.61,1,1.22,1.5,1.81Zm6,6.23c-.55-.49-1.07-1-1.6-1.51-.28-.26-.56-.53-.82-.81s-.55-.55-.83-.83-.43-.46-.64-.7-.38-.4-.57-.62-.53-.58-.79-.87a56.1,56.1,0,0,0,5.79,5.85c.31.26.61.52.91.76C89.19,145.8,88.7,145.38,88.23,145Zm-7.84-8.54-.14-.19a17.62,17.62,0,0,0,1.23,1.57C81.11,137.34,80.76,136.88,80.39,136.41Zm1.84,2.31-.75-.92c.46.61,1,1.22,1.5,1.81Zm6,6.23c-.55-.49-1.07-1-1.6-1.51-.28-.26-.56-.53-.82-.81s-.55-.55-.83-.83-.43-.46-.64-.7-.38-.4-.57-.62-.53-.58-.79-.87a56.1,56.1,0,0,0,5.79,5.85Z"/><path class="cls-1" d="M50,105.44a1.4,1.4,0,0,0,.1.16c.13.19.27.39.42.57C50.29,105.93,50.12,105.69,50,105.44ZM50.05,94a.86.86,0,0,0-.1.16c.34-.49.68-1,1-1.47C50.67,93.13,50.36,93.57,50.05,94Z"/><path class="cls-1" d="M118.48,62c.82,1,1.62,2.11,2.38,3.2C120.11,64.13,119.31,63.06,118.48,62Zm-1.27-1.54c.43.51.85,1,1.27,1.54C118.08,61.5,117.67,61,117.21,60.49ZM105.68,50l-.25-.16,1,.7C106.16,50.34,105.93,50.14,105.68,50ZM87.9,62.8c.59-.66,1.21-1.31,1.85-2C89.1,61.48,88.48,62.14,87.9,62.8Z"/><path class="cls-1" d="M86.39,135.06a52.1,52.1,0,0,0,4.78,5.07A61.89,61.89,0,0,1,86.39,135.06Z"/><path class="cls-1" d="M172.06,57a10,10,0,0,0-11.57-2,9.09,9.09,0,0,0-1.65,1,59,59,0,0,0-3.55-10.2l-.43-1-1-.43a59,59,0,0,0-10.2-3.55,9.7,9.7,0,0,0,1-1.65,10,10,0,0,0-2-11.57,60.77,60.77,0,0,0-85.54,0,10,10,0,0,0-2,11.57,9.7,9.7,0,0,0,1,1.65,58.71,58.71,0,0,0-10.2,3.55l-.95.43-.44,1A60.74,60.74,0,0,0,40.93,56a8.76,8.76,0,0,0-1.65-1,10,10,0,0,0-11.57,2,60.77,60.77,0,0,0,0,85.54,10.07,10.07,0,0,0,7.17,3,10.3,10.3,0,0,0,4.4-1,9.33,9.33,0,0,0,1.65-1,60.43,60.43,0,0,0,3.55,10.2l.44,1,.95.43a58.71,58.71,0,0,0,10.2,3.55,10.22,10.22,0,0,0,1,13.23,60.77,60.77,0,0,0,85.54,0,10.23,10.23,0,0,0,1-13.23,59,59,0,0,0,10.2-3.55l1-.43.43-1a58.71,58.71,0,0,0,3.55-10.2,9.7,9.7,0,0,0,1.65,1,10.3,10.3,0,0,0,4.4,1,10.05,10.05,0,0,0,7.17-3,60.77,60.77,0,0,0,0-85.54Zm-21.4-8a54.32,54.32,0,0,1,4.15,15.91.41.41,0,0,1,0,.11c.05.48.09,1,.13,1.43s.06,1,.09,1.44.05,1,.06,1.44,0,1,0,1.44,0,.89,0,1.34c0,.25,0,.49,0,.74,0,.83-.09,1.65-.15,2.48,0,.49-.08,1-.15,1.47v0c0,.46-.1.92-.16,1.37a.78.78,0,0,0,0,.16l0,.14c0,.45-.12.89-.2,1.33s-.13.75-.2,1.12a52.33,52.33,0,0,1-2,7.66c-.32,1-.67,1.9-1.06,2.83s-.78,1.85-1.21,2.77l-.26-.36c-.24-.34-.48-.69-.73-1-.39-.53-.78-1-1.17-1.55l-.52-.64-1-1.17c-.44-.51-.87-1-1.33-1.5s-.77-.85-1.17-1.25l-.52-.54c-.36-.37-.72-.72-1.08-1.07s-.76-.73-1.16-1.09c-1-.93-2-1.82-3.11-2.68-.3-.24-.61-.49-.92-.72-1.41-1.09-2.85-2.11-4.34-3.06-.5-.33-1-.64-1.51-.94s-.75-.46-1.13-.67l-.88-.5c-1.07-.58-2.15-1.14-3.25-1.66h0a1.87,1.87,0,0,0-.15-.32c-.2-.43-.41-.87-.64-1.29s-.47-.93-.73-1.39-.34-.63-.52-.93c-.25-.46-.51-.9-.78-1.33s-.69-1.14-1-1.7-.73-1.11-1.11-1.65c-.76-1.09-1.56-2.16-2.38-3.2-.42-.52-.84-1-1.27-1.54l-1.09-1.25-1-1,0,0-.64-.67-.66-.67-1.11-1.08-.08-.09-.12-.1c-.55-.52-1.11-1-1.69-1.53-.35-.32-.71-.61-1.06-.92,0,0,0,0-.08-.06l-.85-.7-.87-.67c-.25-.2-.5-.4-.77-.59l-.65-.49-.14-.1-1-.7a0,0,0,0,0,0,0c.46-.22.92-.43,1.38-.62s.92-.41,1.4-.59.93-.38,1.4-.55,1-.36,1.43-.51,1-.33,1.43-.47a51.32,51.32,0,0,1,7.35-1.74c.49-.09,1-.16,1.47-.23l.18,0c.42-.06.85-.12,1.28-.15l.24,0c.44-.06.89-.09,1.35-.13,1.5-.12,3-.19,4.56-.19s2.89.06,4.32.17l1.43.13h.11A54.32,54.32,0,0,1,150.66,49Zm-19,49.36c0-.51,0-1,0-1.51,0-.66-.08-1.33-.12-2s-.11-1.31-.19-2c-.12-1-.26-2-.42-3.07-.07-.4-.14-.81-.22-1.22l-.57-2.72c-.11-.46-.22-.9-.33-1.35v0c-.11-.45-.23-.88-.36-1.33s-.27-.91-.41-1.37a0,0,0,0,1,0,0c.39.24.79.49,1.16.74l.18.12c.44.29.89.59,1.32.9l.28.2,1,.75c.42.31.84.63,1.26,1s.83.66,1.23,1c.58.49,1.14,1,1.69,1.48s.89.83,1.32,1.25l.13.13c.36.34.71.7,1,1.06.22.2.43.42.63.64.41.44.82.88,1.21,1.34l.05,0c.45.52.91,1.06,1.33,1.59t0,0c.45.55.89,1.12,1.31,1.69l0,0c.41.54.8,1.08,1.18,1.64l.11.15c.39.57.77,1.14,1.13,1.72.1.14.19.29.28.44h0a0,0,0,0,1,0,0c-.14.25-.3.49-.46.73s-.35.54-.53.81l0,.05c-.26.4-.54.78-.82,1.17s-.56.81-.87,1.21c-.58.79-1.19,1.57-1.84,2.33a54.33,54.33,0,0,1-12.43,11l-.94.59s0,0,0,0c.15-.45.29-.92.42-1.38s.25-.9.37-1.35l.33-1.35q.33-1.44.6-2.91c.07-.34.13-.7.19-1,.16-1,.3-2,.42-3.07.08-.65.14-1.29.19-2s.09-1.3.12-2,0-1,0-1.54,0-.94,0-1.41S131.65,98.86,131.64,98.39Zm-14.39,24.84c-.21.08-.43.14-.66.22l-.48.15-.5.15-.67.2-.37.1-.65.17c-.31.1-.64.18-1,.25l-.15,0c-.31.07-.63.15-1,.21l-.43.1c-.43.1-.88.18-1.32.26l-.09,0q-1.39.27-2.79.45l-1.17.14-.55.06h-.13c-.34,0-.67.06-1,.08h-.11l-.17,0-.81.06h-.05L102,126l-.85,0-1.29,0-1.28,0c-.29,0-.57,0-.86,0l-1.21,0h0l-1-.07-.19,0c-.32,0-.63,0-.94-.08l-.75-.07-1.41-.18c-.84-.12-1.67-.25-2.51-.41l-.08,0c-.41-.07-.82-.15-1.24-.25l-.17,0-.44-.09-.83-.2c-.37-.08-.74-.17-1.11-.28L85,124,85,124l-1.28-.38-.27-.08c-.31-.09-.63-.19-.93-.3-.72-.24-1.45-.49-2.16-.77l-.3-.11,0,0a4.56,4.56,0,0,1-2.56-2.5l-.06-.14c-.63-1.62-1.17-3.27-1.64-4.94-.09-.31-.17-.62-.25-.93s-.2-.74-.28-1.11l-.2-.83c-.14-.64-.27-1.29-.39-1.93-.16-.84-.29-1.67-.41-2.51L74,106c0-.25,0-.5-.07-.75s-.06-.63-.08-.94c0-.06,0-.13,0-.19,0-.33,0-.65-.07-1s0-.82-.05-1.24,0-.56,0-.85,0-.86,0-1.28,0-.86,0-1.29,0-.56,0-.85,0-.8.05-1.21,0-.68.08-1a.45.45,0,0,1,0-.11c0-.33,0-.66.08-1s0-.46.07-.68c0-.39.09-.78.14-1.17q.18-1.39.45-2.79c.11-.62.24-1.23.38-1.84.06-.31.13-.63.21-.94a54,54,0,0,1,2.17-7l.06-.14A4.59,4.59,0,0,1,80,77.28l0,0q2.43-.95,4.94-1.65l.93-.25.34-.08c.35-.1.7-.18,1.06-.26l1.24-.28c.4-.09.82-.16,1.23-.24,1.17-.21,2.34-.39,3.53-.53l.39,0,.75-.07.94-.09h.19l1-.07q.62,0,1.23-.06l.86,0,1.28,0,1.29,0,.85,0,1.21.06,1,.07h.11l1,.09.68.07.55.07a7.09,7.09,0,0,1,.91.12c1.19.15,2.39.36,3.57.6l1.41.31,1,.23a55.17,55.17,0,0,1,6.32,2l0,0a4.6,4.6,0,0,1,2.56,2.49h0l.06.14.19.53c.09.22.17.44.25.67,0,0,0,0,0,0,.12.35.25.69.36,1,.24.68.46,1.39.66,2.08l.3,1c.13.48.25.94.36,1.41s.22,1,.32,1.42.2,1,.29,1.43c.16.86.3,1.72.41,2.59,0,.3.09.61.12.91s0,.36.07.55,0,.45.07.68.07.67.09,1a.45.45,0,0,1,0,.11c0,.35,0,.69.07,1s0,.81,0,1.21,0,.57,0,.85,0,.86,0,1.29,0,.86,0,1.28,0,.57,0,.85,0,.83,0,1.24,0,.64-.07,1a1.21,1.21,0,0,1,0,.19l-.09.94c0,.25,0,.5-.07.75s0,.27,0,.39c-.15,1.19-.32,2.36-.53,3.53-.08.41-.15.83-.24,1.23s-.18.83-.28,1.24-.16.71-.26,1.06c0,.12-.06.23-.08.34-.09.31-.17.62-.25.93-.48,1.67-1,3.32-1.65,4.94l0,0a4.62,4.62,0,0,1-2.61,2.59l0,0-.28.1c-.45.18-.91.34-1.36.5l-.22.07A5.67,5.67,0,0,1,117.25,123.23Zm.58,5.66-.2.31c-.2.34-.43.69-.66,1a54,54,0,0,1-10.15,11.5l-1.7,1.4c-.42.34-.84.66-1.27,1s-.85.64-1.3.93c-.75.54-1.53,1.07-2.33,1.56l-.32.21h0c-.9-.55-1.79-1.15-2.66-1.76-.45-.29-.87-.61-1.3-.93s-.85-.65-1.26-1-.84-.66-1.24-1-.82-.69-1.21-1l-1-1a52.1,52.1,0,0,1-4.78-5.07c-.58-.72-1.17-1.45-1.73-2.2-.33-.43-.64-.87-1-1.31s-.61-.88-.9-1.32-.59-.89-.87-1.34l1.61.47h0l.91.25h.08c1.37.36,2.76.67,4.16.93.4.07.81.15,1.22.21l1.42.22,1.65.21c.76.08,1.52.15,2.27.2l.46,0H96c.32,0,.65,0,1,.05.51,0,1,.05,1.54.06l1.41,0,1.41,0c.51,0,1,0,1.51-.06l.62,0,.63,0q.78,0,1.56-.12c.44,0,.88-.08,1.33-.14l1-.12.87-.13c.33,0,.65-.09,1-.15l1.23-.21.2,0,1.69-.35,1-.23.26-.06a4.43,4.43,0,0,0,.49-.13l1.24-.31.16-.05Zm-43.85-3s0-.08-.07-.13h0ZM116.42,70.3l-1.3-.35c-.45-.12-.9-.23-1.36-.33l-1.25-.29L111,69.05c-.44-.09-.87-.16-1.3-.23l-.2,0-1.26-.19c-.5-.07-1-.14-1.53-.19s-1.3-.14-2-.19-1.32-.09-2-.12l-1.51,0-1.41,0-1.41,0-1.54,0c-.66,0-1.31.08-2,.12s-1.3.11-2,.19-1,.12-1.53.19l-1.25.19-.21,0c-.42.07-.86.14-1.29.23l-1.47.28L86,69.62c-.45.1-.91.21-1.35.33l-1.11.3c-.54.15-1.08.3-1.61.47h0c.09-.15.19-.3.29-.44a8.35,8.35,0,0,1,.47-.74c.36-.56.74-1.11,1.13-1.66s.6-.83.9-1.24c.73-1,1.49-1.91,2.28-2.83l.78-.89.12-.12c.58-.66,1.2-1.32,1.85-2,.27-.28.57-.57.86-.85l.34-.31c.27-.27.54-.52.82-.77s.7-.63,1.06-.93c.18-.17.37-.33.56-.48.41-.35.81-.68,1.23-1s.95-.75,1.44-1.11.81-.59,1.21-.87l.08-.05a4.52,4.52,0,0,1,2.54-.78,4.62,4.62,0,0,1,2.42.7l.19.13c.32.22.65.45,1,.69s.71.53,1.06.81h0c.33.25.65.49,1,.76h0c.32.25.63.51,1,.79,0,0,0,0,0,0a55.44,55.44,0,0,1,11.35,13.13h0ZM61,31.57a55.23,55.23,0,0,1,77.73,0,4.51,4.51,0,0,1,.92,5.25,4.3,4.3,0,0,1-4.3,2.55h-.16l-.72-.08-.73-.06-.36,0-1.34-.08C131,39.05,130,39,128.89,39c-.67,0-1.34,0-2,0s-1.26,0-1.89.09h-.27c-1.27.1-2.54.22-3.81.38-1.11.15-2.21.33-3.31.53-.5.09-1,.19-1.5.31-1,.21-2,.45-3,.71l-1.48.41h0c-1,.29-2,.6-2.91.94s-1.92.7-2.87,1.09h0c-.69.28-1.37.58-2.06.89s-1.2.55-1.79.85l-.12.05-.12.06a4.17,4.17,0,0,1-3.77,0l-.23-.11h0c-.54-.28-1.1-.54-1.64-.79l-.33-.15c-1.35-.6-2.72-1.15-4.1-1.67-1-.38-2.09-.73-3.16-1-1.32-.39-2.64-.75-4-1.06s-2.69-.56-4-.79l-1.65-.24c-1.27-.16-2.53-.28-3.81-.38h-.27l-1.88-.09c-.67,0-1.34,0-2,0-1.07,0-2.12,0-3.17.08l-1.35.08-.36,0c-.48.05-1,.08-1.45.14H64.4a4.31,4.31,0,0,1-4.3-2.55A4.54,4.54,0,0,1,61,31.57ZM44.83,66.48c0-.48.08-1,.13-1.43a.41.41,0,0,1,0-.11A54.64,54.64,0,0,1,49.12,49a54.37,54.37,0,0,1,15.93-4.15h.08l1.43-.13c1.43-.11,2.88-.17,4.33-.17s3,.07,4.56.19c.49,0,1,.08,1.47.15h0c.5,0,1,.11,1.49.18a49.54,49.54,0,0,1,5.12.94,52,52,0,0,1,8,2.56c.47.17.93.37,1.39.58s.92.4,1.37.62h0a1.33,1.33,0,0,1-.12.06l-.11.09,0,0L92.61,51c-.33.25-.66.5-1,.78l-.45.34a9.73,9.73,0,0,0-.79.65c-.32.25-.63.51-.94.77L89,54l-1.07.95-.45.42c-.31.3-.63.59-.94.91-.18.16-.35.34-.53.52l-.88.88c-.16.16-.3.33-.46.48-.34.36-.68.73-1,1.1a4.28,4.28,0,0,1-.29.33c-.42.47-.84,1-1.24,1.45s-.86,1-1.27,1.58-.82,1.08-1.22,1.63-.79,1.11-1.17,1.67C77.69,67,77,68.16,76.3,69.33c-.34.59-.67,1.17-1,1.76a1,1,0,0,0-.08.14c-.22.42-.44.83-.65,1.25s-.45.9-.66,1.37c-.46.21-.92.42-1.36.65l-.12.07-1.53.79c-1.1.6-2.18,1.23-3.24,1.9-.58.35-1.14.72-1.7,1.09h0c-.57.38-1.12.77-1.67,1.17-.76.55-1.51,1.11-2.23,1.69-.3.25-.61.49-.91.75a1.45,1.45,0,0,0-.23.19c-.44.36-.87.73-1.3,1.1a2.91,2.91,0,0,1-.27.24L58,84.73c-.5.46-1,1-1.45,1.43s-.89.9-1.31,1.37l-.2.21c-.42.46-.84.94-1.26,1.42s-.83,1-1.23,1.47a2,2,0,0,0-.17.23c-.21.24-.4.49-.59.74s-.57.73-.84,1.1-.7,1-1,1.47a.22.22,0,0,0-.07.09c-.2-.43-.39-.85-.58-1.28,0,0,0-.08,0-.12-.21-.45-.4-.91-.58-1.38s-.26-.64-.38-1c-.21-.56-.42-1.13-.62-1.7a53.18,53.18,0,0,1-2.51-10.59c-.09-.6-.16-1.2-.22-1.81,0-.34-.06-.7-.09-1q-.18-2.27-.18-4.56C44.67,69.35,44.72,67.92,44.83,66.48Zm23.3,34.73c0,.51,0,1,.06,1.54s0,.8.07,1.21c.08,1.42.23,2.83.43,4.24,0,.41.12.84.18,1.25a1.33,1.33,0,0,1,0,.21c.07.42.15.86.23,1.29s.19,1,.29,1.47.18.84.28,1.26.23.91.34,1.35.19.74.29,1.11c.16.54.32,1.08.47,1.61h0c-.17-.11-.36-.22-.53-.34s-.44-.27-.65-.42h0q-.73-.48-1.44-1c-.5-.34-1-.7-1.47-1.06-.33-.25-.66-.5-1-.76-.52-.4-1-.81-1.52-1.23l-.31-.27-.89-.78-.09-.08c-.51-.46-1-.92-1.51-1.41l-.73-.73c-.25-.25-.49-.49-.72-.74s-.66-.68-1-1l-.93-1.06-.86-1-.07-.09-.73-.9q-.93-1.2-1.8-2.43a.75.75,0,0,1-.07-.12,4.58,4.58,0,0,1,0-5l.07-.11q.87-1.25,1.8-2.43c.24-.31.48-.6.73-.9.93-1.15,1.92-2.26,2.95-3.33.13-.15.27-.29.42-.44l.44-.44c.5-.52,1-1,1.55-1.49.28-.26.55-.51.84-.75l.24-.22c.37-.32.74-.64,1.12-.94q1-.84,2-1.62c.37-.29.75-.56,1.13-.82l.6-.43c.44-.3.89-.61,1.35-.9l.08,0c.22-.15.44-.3.66-.42l.12-.08.13-.08h0c-.13.47-.27.94-.41,1.41s-.22.82-.34,1.23-.24,1-.35,1.43-.19.83-.28,1.25-.2,1-.29,1.47-.16.87-.23,1.3a1.38,1.38,0,0,1,0,.2c-.06.42-.13.83-.18,1.26-.2,1.4-.34,2.8-.43,4.22,0,.41-.05.83-.07,1.25s0,1-.06,1.51,0,.94,0,1.41S68.12,100.74,68.13,101.21Zm-24.4,4.33a60.82,60.82,0,0,0-4.09,15.3c-.17,1.27-.29,2.53-.38,3.81a2.45,2.45,0,0,1,0,.27c0,.63-.07,1.26-.08,1.88s0,1.34,0,2,0,1.32,0,2c0,.44,0,.86.05,1.3.06,1,.14,2.05.24,3.07a4.34,4.34,0,0,1-2.52,4.46,4.57,4.57,0,0,1-5.27-.92,55.23,55.23,0,0,1,0-77.73,4.43,4.43,0,0,1,3.21-1.38,4.87,4.87,0,0,1,2.06.46,4.32,4.32,0,0,1,2.52,4.46c-.11,1-.18,2-.24,3.07,0,.41,0,.82,0,1.24,0,.67,0,1.34,0,2s0,1.34,0,2,0,1.26.08,1.89a2.28,2.28,0,0,1,0,.27c.09,1.27.21,2.54.38,3.81a60.75,60.75,0,0,0,4.09,15.29c.26.61.52,1.23.8,1.83s.41.89.63,1.34c.1.23.22.47.33.69a4.2,4.2,0,0,1,0,3.77h0c-.15.28-.29.58-.42.86s-.37.77-.54,1.16C44.25,104.32,44,104.92,43.73,105.54Zm5.39,45A54.62,54.62,0,0,1,45,134.65a.28.28,0,0,1,0-.09c-.05-.48-.09-1-.13-1.44-.11-1.42-.16-2.87-.16-4.32s.06-3.05.18-4.56c0-.35.07-.69.09-1,.07-.7.15-1.39.25-2.07.23-1.7.54-3.37.93-5,.11-.47.23-.94.36-1.4s.17-.67.27-1,.21-.73.32-1.1.25-.79.38-1.19.31-.89.46-1.34c.24-.65.49-1.31.76-2,.18-.46.37-.92.58-1.38l0-.12c.2-.42.38-.85.58-1.27l.07.09c.17.25.34.49.52.73s.34.49.52.73l1,1.31.25.32.58.71c.32.4.64.79,1,1.18l.1.12c.31.37.64.73,1,1.09s.38.42.58.64c.37.39.75.79,1.14,1.18s.8.8,1.21,1.19l.41.4,1.1,1c.1.09.21.18.32.29.43.37.86.74,1.3,1.1l.22.19c.5.42,1,.82,1.52,1.22s1.08.82,1.63,1.22,1.1.79,1.67,1.17,1.32.87,2,1.28q.74.45,1.47.87c.57.33,1.14.66,1.73,1a1.65,1.65,0,0,0,.26.14l1.24.65a4.51,4.51,0,0,1,1.83,1.79c0,.06.07.11.1.18.25.49.5,1,.76,1.45.4.75.83,1.5,1.27,2.24.09.17.2.33.3.5.6,1,1.23,2,1.88,2.9.19.26.36.52.55.77h0l.25.35c.21.3.43.59.65.88l.14.19c.37.47.72.93,1.09,1.38h0l.75.92c.5.6,1,1.18,1.54,1.76.19.22.37.42.57.62s.43.47.64.7.55.56.83.83.54.54.82.81c.53.52,1.05,1,1.6,1.51s1,.85,1.45,1.27c.7.59,1.42,1.17,2.15,1.74s1.66,1.25,2.51,1.85c-.37.18-.74.35-1.12.5-1,.49-2.12.92-3.2,1.31l-1.76.62a53.86,53.86,0,0,1-10.94,2.41c-.62.08-1.24.14-1.87.19L73,155h-.74l-1.33,0-1.45,0c-.48,0-1,0-1.44-.05l-1.44-.09-1.43-.13H65A54.49,54.49,0,0,1,49.12,150.57ZM138.75,168A55.23,55.23,0,0,1,61,168a4.57,4.57,0,0,1-.92-5.27A4.35,4.35,0,0,1,64,160.22a4.89,4.89,0,0,1,.54,0c1,.1,2,.18,3.07.24l.72,0H69c.63,0,1.27,0,1.91,0s1,0,1.5,0h.5c.62,0,1.25,0,1.88-.08l.27,0,.27,0h.21l1.41-.12h0l.18,0,.12,0,1.58-.19A60.82,60.82,0,0,0,94.15,156l1.58-.69c.39-.16.79-.35,1.17-.54l1.1-.53a4.21,4.21,0,0,1,1.88-.44,4.16,4.16,0,0,1,1.89.44c.22.11.46.23.69.33.45.22.89.43,1.34.63.6.28,1.21.54,1.83.8s1.23.5,1.85.73l1.42.51q1.06.38,2.16.72,1.64.5,3.3.9c1.11.27,2.23.51,3.34.72.5.1,1,.18,1.5.26s1.15.18,1.72.25l1.58.19.12,0,.18,0h0l1.4.12h.21l.27,0,.27,0c.63,0,1.26.07,1.89.08h.49c.5,0,1,0,1.51,0s1.3,0,2,0h.43l.87,0c1-.06,2.05-.14,3.07-.24a4.32,4.32,0,0,1,4.46,2.52A4.53,4.53,0,0,1,138.75,168ZM155,133.12c0,.48-.08,1-.13,1.44a.25.25,0,0,1,0,.08,54.37,54.37,0,0,1-4.15,15.93,54.64,54.64,0,0,1-15.91,4.15h-.11l-1.43.13-1.44.09c-.48,0-1,0-1.44.05l-1.44,0-1.34,0h-.74l-.37,0-.87-.05-1.24-.08a53.42,53.42,0,0,1-8.12-1.27,52.32,52.32,0,0,1-8.47-2.75c-.77-.32-1.54-.65-2.31-1,1.37-1,2.7-2,4-3l1-.86,1-.87.86-.78q1.57-1.47,3-3l.1-.11a.05.05,0,0,0,0,0l.11-.11s.09-.1.14-.15l.28-.32c.46-.49.88-1,1.31-1.49.15-.16.29-.34.43-.51.46-.55.9-1.11,1.34-1.67l.16-.21.52-.69c.24-.31.47-.64.69-.95s.4-.56.6-.84l.73-1.1c.38-.58.74-1.16,1.11-1.74.1-.17.2-.33.29-.5s.31-.51.45-.77l.74-1.3.09-.17c.26-.48.51-1,.76-1.45a1,1,0,0,1,.09-.18,4.66,4.66,0,0,1,1.92-1.84l.86-.45,1.56-.84c.51-.29,1-.58,1.52-.89l1.2-.73,1.1-.71c.37-.24.73-.49,1.09-.74a62.52,62.52,0,0,0,13.27-12.56c.24-.31.48-.62.71-.94s.37-.48.55-.73l0,0,.81-1.13c.43.91.84,1.83,1.21,2.77s.73,1.88,1.06,2.82c.12.35.24.72.35,1.08a50,50,0,0,1,1.66,6.59c.08.37.13.75.2,1.12s.16,1,.23,1.47a1.24,1.24,0,0,0,0,.18c.06.42.12.85.15,1.28l0,.23c.06.45.09.9.13,1.35.12,1.51.18,3,.18,4.56S155.06,131.7,155,133.12Zm13.17,5.55a4.54,4.54,0,0,1-5.25.92,4.3,4.3,0,0,1-2.55-4.3s0,0,0,0a.62.62,0,0,0,0-.13c.06-.48.09-1,.14-1.45l0-.36c0-.45.05-.9.08-1.35.06-1.05.08-2.1.08-3.17,0-.66,0-1.33,0-2s0-1.25-.09-1.88a2.44,2.44,0,0,1,0-.27c-.1-1.28-.22-2.54-.38-3.81-.15-1.11-.33-2.21-.53-3.31-.07-.38-.15-.75-.22-1.13a62.82,62.82,0,0,0-1.79-6.66c-.12-.37-.24-.73-.37-1.09s-.34-1-.53-1.44-.36-1-.56-1.44h0c-.29-.68-.58-1.36-.89-2.05s-.55-1.2-.85-1.79a1.63,1.63,0,0,0-.11-.23,4.17,4.17,0,0,1,0-3.77l.06-.12a.61.61,0,0,0,.05-.12c.15-.3.3-.59.44-.9s.27-.6.41-.89c.31-.69.6-1.37.89-2.06.39-1,.76-1.9,1.09-2.86a65.17,65.17,0,0,0,2.17-7.76c.07-.37.15-.75.22-1.13.14-.73.26-1.46.37-2.2,0-.37.11-.74.16-1.11.08-.63.15-1.25.22-1.88,0,0,0,0,0,0,0-.53.09-1.07.14-1.62,0-.09,0-.17,0-.26a2.35,2.35,0,0,1,0-.27q.06-.94.09-1.89c0-.16,0-.32,0-.49,0-.5,0-1,0-1.51,0-1.06,0-2.11-.08-3.17,0-.45-.05-.9-.08-1.34l0-.36c-.05-.48-.08-1-.14-1.45a.53.53,0,0,0,0-.13s0,0,0,0a4.3,4.3,0,0,1,2.55-4.3,4.75,4.75,0,0,1,2-.46,4.43,4.43,0,0,1,3.21,1.38,55.23,55.23,0,0,1,0,77.73Z"/><text class="cls-2" transform="translate(200 66.47)">N<tspan class="cls-3" x="37.14" y="0">e</tspan><tspan x="60.02" y="0">w </tspan><tspan class="cls-4" x="103.93" y="0">A</tspan><tspan x="134.16" y="0">ge</tspan><tspan class="cls-5" x="0" y="44">W</tspan><tspan x="44.26" y="44">isdom </tspan><tspan x="0" y="88">Center</tspan></text></svg>