<svg id="Layer_1" data-name="Layer 1" xmlns="http://www.w3.org/2000/svg" viewBox="0 0 200 200"><defs><style>.cls-1{fill:none;stroke:#fff;stroke-miterlimit:10;stroke-width:6px;}</style></defs><title>Artboard 6</title><path class="cls-1" d="M96.62,43.66a7.52,7.52,0,0,0,6.76,0,62.5,62.5,0,0,1,28-6.57,64.2,64.2,0,0,1,6.54.34c7.39.76,11.53-8.3,6.25-13.53a62.72,62.72,0,0,0-88.28,0c-5.28,5.23-1.14,14.29,6.25,13.53a64.2,64.2,0,0,1,6.54-.34A62.5,62.5,0,0,1,96.62,43.66Z"/><path class="cls-1" d="M103.38,155.94a7.52,7.52,0,0,0-6.76,0,62.5,62.5,0,0,1-28,6.57,64.21,64.21,0,0,1-6.54-.33c-7.39-.77-11.53,8.29-6.25,13.53a62.72,62.72,0,0,0,88.28,0c5.28-5.24,1.14-14.3-6.25-13.53a64.21,64.21,0,0,1-6.54.33A62.5,62.5,0,0,1,103.38,155.94Z"/><path class="cls-1" d="M194.07,99.8A62.49,62.49,0,0,0,175.9,55.67c-5.23-5.28-14.29-1.15-13.53,6.25a61.12,61.12,0,0,1,.34,6.53,62.5,62.5,0,0,1-6.57,28,7.52,7.52,0,0,0,0,6.76,62.51,62.51,0,0,1,6.57,28,61.4,61.4,0,0,1-.34,6.53c-.76,7.39,8.3,11.53,13.53,6.25A62.52,62.52,0,0,0,194.07,99.8Z"/><path class="cls-1" d="M100,45.48A63,63,0,0,1,125.81,74,63,63,0,0,1,154.32,99.8a62.84,62.84,0,0,0,2.85-57.17A62.84,62.84,0,0,0,100,45.48Z"/><path class="cls-1" d="M154.32,99.8a63,63,0,0,1-26.13,24.68,7.89,7.89,0,0,0-3.51,3.51A63,63,0,0,1,100,154.12,62.84,62.84,0,0,0,157.17,157a62.84,62.84,0,0,0-2.85-57.17Z"/><path class="cls-1" d="M125.81,74a62.89,62.89,0,0,1,0,51.62A63,63,0,0,0,154.22,100a.38.38,0,0,0,0-.36A63,63,0,0,0,125.81,74Z"/><path class="cls-1" d="M43.86,103.18a7.52,7.52,0,0,0,0-6.76,62.5,62.5,0,0,1-6.57-28,61.12,61.12,0,0,1,.34-6.53c.76-7.4-8.3-11.53-13.53-6.25a62.69,62.69,0,0,0,0,88.27c5.23,5.28,14.29,1.14,13.53-6.25a61.4,61.4,0,0,1-.34-6.53A62.51,62.51,0,0,1,43.86,103.18Z"/><path class="cls-1" d="M45.68,99.8A63,63,0,0,1,71.81,75.12a7.84,7.84,0,0,0,3.51-3.51A63.05,63.05,0,0,1,100,45.48a62.84,62.84,0,0,0-57.17-2.85A62.84,62.84,0,0,0,45.68,99.8Z"/><path class="cls-1" d="M100,154.12A63,63,0,0,1,75.32,128a7.89,7.89,0,0,0-3.51-3.51A63,63,0,0,1,45.68,99.8,62.84,62.84,0,0,0,42.83,157,62.84,62.84,0,0,0,100,154.12Z"/><path class="cls-1" d="M74.19,74A62.87,62.87,0,0,0,48.58,95.26a7.91,7.91,0,0,0,0,9.08,62.79,62.79,0,0,0,25.61,21.27,62.89,62.89,0,0,1,0-51.62Z"/><path class="cls-1" d="M125.81,74a62.87,62.87,0,0,0-21.27-25.61,7.91,7.91,0,0,0-9.08,0A62.87,62.87,0,0,0,74.19,74a62.89,62.89,0,0,1,51.62,0Z"/><path class="cls-1" d="M74.19,125.61A63,63,0,0,0,99.82,154a.38.38,0,0,0,.36,0,63,63,0,0,0,25.63-28.41,62.79,62.79,0,0,1-51.62,0Z"/><path class="cls-1" d="M127.17,77.23a8,8,0,0,0-4.6-4.6,63,63,0,0,0-45.14,0,8,8,0,0,0-4.6,4.6,63.05,63.05,0,0,0,0,45.15,8,8,0,0,0,4.6,4.59,62.88,62.88,0,0,0,45.14,0,8,8,0,0,0,4.6-4.59,63.05,63.05,0,0,0,0-45.15Z"/></svg>